<?xml version="1.0" encoding="UTF-8"?>
<svg id="Layer_1" data-name="Layer 1" xmlns="http://www.w3.org/2000/svg" viewBox="0 0 48 48">
  <path d="M43,5c1.81,1.81,2.99,4.25,3.4,6.78-.13,7.64.53,15.73.11,23.34-.34,6.12-5.27,11.05-11.39,11.39-7.61.42-15.7-.24-23.34-.11-5.64-.86-9.96-5.56-10.28-11.28-.42-7.61.24-15.7.11-23.34C2.38,6.56,6.56,2.38,11.78,1.61c7.64.13,15.73-.53,23.34-.11,2.91.16,5.83,1.44,7.88,3.51ZM12.64,4.53c-4.4.44-7.87,4.03-8.14,8.45-.45,7.24.34,14.94,0,22.22.38,4.4,3.89,7.91,8.3,8.3h22.4c4.4-.38,7.92-3.89,8.3-8.3V12.8c-.38-4.39-3.89-7.92-8.3-8.3l-22.56.03Z"/>
  <path d="M17.25,24.09l-.06-.19-6.45-5.81c-.88-1.43.76-3.03,2.15-2.06,2.29,2.24,4.95,4.23,7.22,6.47,1.23,1.21,1.23,1.8,0,3-2.29,2.25-4.97,4.26-7.27,6.51-1.43.88-3.03-.77-2.06-2.15l6.47-5.77Z"/>
  <path d="M23.69,29.27h12.53c1.75.33,1.68,2.73-.09,2.98h-12.37c-1.66-.33-1.72-2.57-.08-2.98Z"/>
</svg>