<?xml version="1.0" encoding="UTF-8"?>
<svg id="Layer_2" xmlns="http://www.w3.org/2000/svg" version="1.1" viewBox="0 0 669.6 669.6">
  <!-- Generator: Adobe Illustrator 29.7.1, SVG Export Plug-In . SVG Version: 2.1.1 Build 8)  -->
  <defs>
    <style>
      .st0 {
        fill: #2196f3;
      }
    </style>
  </defs>
  <path class="st0" d="M334.8,465h0c0-124.3-100.7-225-225-225h0c124.3,0,225-100.7,225-225h0c0,124.3,100.7,225,225,225h0c-124.3,0-225,100.7-225,225Z"/>
  <path class="st0" d="M334.8,537.7c96,0,181.6,61.4,236.3,131.9h84.2c-16.2-28.4-36.2-54.5-59.6-78-33.9-33.9-73.3-60.5-117.3-79.1-45.5-19.3-93.8-29-143.6-29s-98.1,9.8-143.6,29c-43.9,18.6-83.4,45.2-117.3,79.1-23.4,23.4-43.4,49.6-59.6,78h84.2c54.7-70.6,140.3-131.9,236.3-131.9h0Z"/>
</svg>