<?xml version="1.0" encoding="UTF-8"?>
<svg id="Layer_1" data-name="Layer 1" xmlns="http://www.w3.org/2000/svg" viewBox="0 0 512 512">
  <path d="M512,104v303c-5.27,28.3-27.16,49.99-56.46,52.04l-401.03-.06c-28.35-3.19-49.45-24.3-54.52-51.98V104c5.07-27.68,26.16-48.79,54.52-51.98l401.03-.06c27.32,1.28,53.19,24.81,56.46,52.04ZM482,339V107.5c0-11.54-15.9-25.58-27.51-25.49l-395.03-.05c-12.32-1.06-29.46,13.36-29.46,25.54v231.5h452ZM241,369H30v34.5c0,10.19,15.31,25.5,25.5,25.5h185.5v-60ZM482,369h-211v60h185.5c10.19,0,25.5-15.31,25.5-25.5v-34.5Z"/>
</svg>